<svg width="68" height="38" viewBox="0 0 68 38" fill="none" xmlns="http://www.w3.org/2000/svg">
<path d="M65.2304 29.2364V15.7597C65.2304 6.03876 61.5863 0.0736451 52.9132 0.0736451C48.03 0.0736451 43.5112 2.35659 41.1061 7.36434C39.4298 2.72481 35.8585 0.0736451 30.0279 0.0736451C24.0514 0.0736451 20.1886 2.50388 18.0021 6.77519H17.5648V3.97675C17.5648 1.1783 16.6902 0 14.1393 0C9.47481 0 0 2.57752 0 5.52326C0 7.2907 1.09325 7.73256 2.11361 8.61628C3.13398 9.42636 4.15434 10.6047 4.15434 13.6977V29.2364C4.15434 32.1822 1.38478 32.3295 1.38478 35.1279C1.38478 37.7791 3.78992 38 6.34084 38H14.2851C16.9818 38 18.3666 37.2636 18.9496 36.0853C19.7513 34.6124 19.4598 32.4031 19.4598 29.9729V17.8953C19.4598 14.2132 20.5531 11.562 23.5413 11.562C26.4566 11.562 27.0397 13.9922 27.0397 17.8953V29.2364C27.0397 32.1822 24.2701 32.3295 24.2701 35.1279C24.2701 37.7791 26.6752 38 29.2262 38H40.1586C42.7095 38 45.1147 37.7791 45.1147 35.1279C45.1147 32.3295 42.3451 32.1822 42.3451 29.2364V17.8953C42.3451 14.2132 43.4384 11.562 46.4266 11.562C49.3419 11.562 49.925 13.9922 49.925 17.8953V29.2364C49.925 32.1822 47.1554 32.3295 47.1554 35.1279C47.1554 37.7791 49.5606 38 52.1115 38H63.0439C65.5949 38 68 37.7791 68 35.1279C68 32.3295 65.2304 32.1822 65.2304 29.2364Z" fill="url(#paint0_linear_10_12)"/>
<defs>
<linearGradient id="paint0_linear_10_12" x1="-42.9765" y1="-19.6874" x2="130.325" y2="69.1604" gradientUnits="userSpaceOnUse">
<stop stop-color="#822FC9"/>
<stop offset="0.0001" stop-color="#814AAF"/>
<stop offset="0.380208" stop-color="#D7308B"/>
<stop offset="0.619767" stop-color="#F0390D"/>
<stop offset="1" stop-color="#FFA800"/>
</linearGradient>
</defs>
</svg>
