<svg width="40" height="40" viewBox="0 0 40 40" fill="none" xmlns="http://www.w3.org/2000/svg">
<rect width="40" height="38.143" rx="5" fill="white"/>
<path d="M5.512 32.4443C5.952 32.3723 6.504 32.2763 6.504 31.9883C6.504 31.8203 6.368 31.7803 6.216 31.7083C6.104 31.6523 6.008 31.5723 6.008 31.4043V30.7723C6.248 30.9243 6.544 31.0443 6.984 31.0443C8.152 31.0443 8.848 30.1243 8.848 28.9403C8.848 27.5003 8.08 26.8123 7.064 26.8123C6.576 26.8123 6.112 27.0283 5.856 27.3643H5.808V27.2043C5.808 26.9243 5.688 26.8123 5.496 26.8123C5.056 26.8123 4.112 27.0843 4.112 27.3723C4.112 27.5643 4.24 27.5883 4.392 27.7163C4.512 27.8123 4.584 27.9323 4.584 28.1963L4.592 31.5483C4.592 31.7563 4.56 31.8603 4.488 31.9483C4.384 32.0763 4.288 32.1483 4.288 32.2683C4.288 32.6043 4.904 32.5483 5.512 32.4443ZM6.88 30.3723C6.408 30.3723 6.008 29.6763 6.008 28.7963V28.4363C6.008 27.9723 6.2 27.6603 6.56 27.6603C7.128 27.6683 7.448 28.7563 7.448 29.5003C7.44 30.1163 7.208 30.3723 6.88 30.3723ZM9.79888 30.9323H10.9589C11.2229 30.9323 11.4469 30.9003 11.4469 30.6523C11.4469 30.3803 11.0949 30.3643 11.0949 30.0443V28.7243C11.0949 28.3243 11.2389 28.2123 11.4229 28.2123C11.6549 28.2123 11.7269 28.2923 11.9749 28.2923C12.4149 28.2923 12.6709 28.0363 12.6709 27.5643C12.6709 27.1243 12.4469 26.8203 11.9589 26.8203C11.6069 26.8203 11.1749 27.0683 10.9829 27.6043H10.9349V27.2363C10.9349 26.9403 10.8469 26.8203 10.5749 26.8203C10.1269 26.8203 9.19888 27.1083 9.19888 27.3803C9.19888 27.5643 9.31888 27.6123 9.47888 27.7243C9.57487 27.7963 9.67088 27.9083 9.66288 28.1803V30.0443C9.66288 30.3643 9.31087 30.3803 9.31087 30.6523C9.31087 30.9003 9.53488 30.9323 9.79888 30.9323ZM15.081 31.0523C16.337 31.0523 17.321 30.1963 17.329 28.8603C17.321 27.5243 16.345 26.8123 15.121 26.8123C13.889 26.8123 12.833 27.6683 12.825 29.0043C12.833 30.3243 13.833 31.0523 15.081 31.0523ZM15.297 30.4043C14.633 30.4043 14.305 29.0763 14.305 28.2683C14.305 27.7563 14.481 27.4603 14.865 27.4603C15.521 27.4603 15.849 28.7963 15.849 29.5803C15.849 30.1083 15.657 30.4043 15.297 30.4043ZM18.8306 26.3883C19.3426 26.3963 19.6866 26.0843 19.6866 25.6283C19.6866 25.1643 19.3426 24.8603 18.8306 24.8603C18.3106 24.8603 17.9746 25.1643 17.9746 25.6283C17.9746 26.0763 18.3106 26.3883 18.8306 26.3883ZM17.9906 32.5323C18.8626 32.5323 19.5506 31.9963 19.5506 30.6763V27.2523C19.5506 27.0043 19.3906 26.8203 19.0226 26.8203C18.5986 26.8203 17.6626 27.0763 17.6626 27.3643C17.6626 27.5323 17.7586 27.5723 17.9026 27.6763C18.0226 27.7723 18.1266 27.8683 18.1266 28.1803V30.3723C18.1266 30.5883 18.2066 30.7563 18.3026 30.8603C18.4946 31.0763 18.6626 31.3243 18.6146 31.5323C18.5826 31.7083 18.4946 31.7963 18.3186 31.7963C18.1106 31.7963 18.0306 31.5803 17.9346 31.3563C17.8466 31.1563 17.7106 30.9643 17.3586 30.9643C17.0626 30.9643 16.7666 31.1563 16.7666 31.5563C16.7666 32.0763 17.2386 32.5323 17.9906 32.5323ZM23.7926 29.4683C23.7126 29.4683 23.6326 29.5083 23.5526 29.5883C23.2646 29.8923 23.0326 29.9883 22.6806 29.9883C22.0406 29.9883 21.6246 29.6043 21.4966 28.9243H23.4086C23.8486 28.9243 24.0486 28.7243 24.0486 28.2763C24.0486 27.5403 23.4086 26.8283 22.2966 26.8283C21.0086 26.8283 20.1766 27.7563 20.1766 29.0203C20.1766 30.2443 21.0246 31.0443 22.3606 31.0443C23.2246 31.0443 23.7846 30.5643 23.9766 30.0523C24.0166 29.9483 24.0406 29.8523 24.0406 29.7563C24.0406 29.5883 23.9286 29.4683 23.7926 29.4683ZM22.1606 27.4443C22.6486 27.4443 22.7846 27.8283 22.7846 28.2043C22.7846 28.2683 22.7766 28.3483 22.7606 28.4043H21.4566C21.4726 27.8843 21.7366 27.4443 22.1606 27.4443ZM26.6414 31.0443C27.5534 31.0443 28.0974 30.5243 28.2654 30.0683C28.3054 29.9643 28.3294 29.8603 28.3294 29.7563C28.3294 29.5883 28.2254 29.4683 28.0814 29.4683C28.0094 29.4683 27.9294 29.5083 27.8494 29.5883C27.5774 29.8763 27.3374 29.9883 26.9534 29.9883C26.2894 29.9883 25.7614 29.3563 25.7614 28.3883C25.7614 27.8763 25.9614 27.4443 26.3774 27.4443C26.7134 27.4443 26.8174 27.6523 26.9374 27.8923C27.0814 28.2043 27.2334 28.5563 27.7294 28.5563C28.1374 28.5563 28.2974 28.2203 28.2974 27.9643C28.2974 27.3643 27.5614 26.8203 26.6174 26.8203C25.4494 26.8203 24.4734 27.6843 24.4734 28.9963C24.4734 30.1483 25.2334 31.0443 26.6414 31.0443ZM30.6284 31.0443C31.7004 31.0443 32.0284 30.3643 32.0284 29.7803C32.0284 29.4043 31.8684 29.2203 31.5884 29.2203C31.2844 29.2203 31.1404 29.4283 31.1404 29.7563C31.1404 30.2443 31.0364 30.4123 30.8284 30.4123C30.5724 30.4123 30.5564 30.1723 30.5564 29.7883V27.5803H31.2764C31.5644 27.5803 31.6604 27.4683 31.6604 27.2363C31.6604 26.9963 31.5084 26.9323 31.3084 26.9323H30.5484V26.0523C30.5484 25.7083 30.5084 25.5563 30.2844 25.5563C29.7324 25.5563 29.9804 26.9323 29.0364 26.9323H28.9484C28.7404 26.9323 28.5724 26.9963 28.5724 27.2683C28.5724 27.4683 28.7004 27.5723 28.8844 27.5803H29.1164V29.0363C29.1164 29.8843 29.1484 31.0443 30.6284 31.0443ZM33.9109 31.0443C34.9669 31.0443 35.6229 30.5243 35.6229 29.7963C35.6229 29.1243 35.1589 28.7963 34.5029 28.4843C33.7189 28.1163 33.6469 27.9803 33.6469 27.7403C33.6469 27.5723 33.7749 27.4443 33.9909 27.4443C34.5829 27.4443 34.5429 28.1963 35.2149 28.1963C35.4469 28.1963 35.6309 27.9883 35.6309 27.7483C35.6309 27.2523 35.0389 26.8123 33.9909 26.8123C33.0949 26.8123 32.3509 27.2443 32.3509 28.0523C32.3509 28.7243 32.7909 29.0363 33.4709 29.3403C34.0549 29.6043 34.2869 29.7963 34.2869 30.0763C34.2869 30.3003 34.1429 30.4203 33.8949 30.4203C33.3509 30.4203 33.3349 29.5883 32.6629 29.5883C32.4229 29.5883 32.2309 29.7883 32.2309 30.0363C32.2309 30.5163 32.7909 31.0443 33.9109 31.0443Z" fill="#009DDC"/>
<path d="M17.1942 20.151C17.1942 20.351 17.2546 20.5461 17.3699 20.7128L17.9396 21.5288C18.1141 21.779 18.5103 21.9824 18.8251 21.9824H20.8749C21.1886 21.9824 21.5849 21.7791 21.7594 21.5288L22.3271 20.7132C22.4247 20.5722 22.5048 20.3203 22.5048 20.151L22.5091 18.9059H17.1909L17.1942 20.151ZM19.8301 5.72146C16.441 5.7314 14 8.35642 14 11.2827C14 12.6924 14.5464 13.9775 15.4479 14.9609C15.9973 15.5593 16.8552 16.8105 17.1836 17.8656C17.1846 17.8736 17.1867 17.882 17.1878 17.8905H22.5126C22.5136 17.882 22.5157 17.8741 22.5167 17.8656C22.845 16.8105 23.703 15.5593 24.2525 14.9609C25.1549 14.0048 25.7 12.7216 25.7 11.2827C25.7 8.21794 23.0708 5.71203 19.8301 5.72146ZM19.85 8.77061C18.3832 8.77061 17.1909 9.91058 17.1909 11.2831C17.1909 11.5908 16.9516 11.8195 16.6591 11.8195C16.3666 11.8195 16.1273 11.5908 16.1273 11.3113C16.1273 9.34965 17.7975 7.78247 19.85 7.78247C20.144 7.78247 20.3818 8.00986 20.3818 8.29067C20.3818 8.57149 20.1425 8.77061 19.85 8.77061Z" fill="#009DDC"/>
</svg>
