<svg width="94" height="104" viewBox="0 0 94 104" fill="none" xmlns="http://www.w3.org/2000/svg">
<g clip-path="url(#clip0_114_27)">
<path d="M25.02 95.21C27.03 95.21 27.645 93.935 27.645 92.84C27.645 92.135 27.345 91.79 26.82 91.79C26.25 91.79 25.98 92.18 25.98 92.795C25.98 93.71 25.785 94.025 25.395 94.025C24.915 94.025 24.885 93.575 24.885 92.855V88.715H26.235C26.775 88.715 26.955 88.505 26.955 88.07C26.955 87.62 26.67 87.5 26.295 87.5H24.87V85.85C24.87 85.205 24.795 84.92 24.375 84.92C23.34 84.92 23.805 87.5 22.035 87.5H21.87C21.48 87.5 21.165 87.62 21.165 88.13C21.165 88.505 21.405 88.7 21.75 88.715H22.185V91.445C22.185 93.035 22.245 95.21 25.02 95.21ZM28.9397 95H31.1147C31.6247 95 32.0297 94.94 32.0297 94.475C32.0297 93.965 31.3697 93.935 31.3697 93.335V90.905C31.3697 89.975 31.6847 89.285 32.4197 89.285C33.1397 89.285 33.4097 89.9 33.4097 91.04V93.335C33.4097 93.935 32.7497 93.965 32.7497 94.49C32.7497 94.94 33.1697 95 33.6647 95H35.8397C36.3347 95 36.7547 94.94 36.7547 94.49C36.7547 93.965 36.0947 93.935 36.0947 93.335V90.71C36.0947 88.625 35.4797 87.275 33.5447 87.275C32.4047 87.275 31.6247 87.86 31.1597 88.655H31.0847V84.575C31.0847 84.035 30.9197 83.795 30.3947 83.795C29.6147 83.795 27.8147 84.335 27.8147 84.845C27.8147 85.19 28.0547 85.28 28.3397 85.49C28.5347 85.625 28.6997 85.835 28.6997 86.345V93.335C28.6997 93.935 28.0397 93.965 28.0397 94.475C28.0397 94.94 28.4447 95 28.9397 95ZM44.1657 92.255C44.0157 92.255 43.8657 92.33 43.7157 92.48C43.1757 93.05 42.7407 93.23 42.0807 93.23C40.8807 93.23 40.1007 92.51 39.8607 91.235H43.4457C44.2707 91.235 44.6457 90.86 44.6457 90.02C44.6457 88.64 43.4457 87.305 41.3607 87.305C38.9457 87.305 37.3857 89.045 37.3857 91.415C37.3857 93.71 38.9757 95.21 41.4807 95.21C43.1007 95.21 44.1507 94.31 44.5107 93.35C44.5857 93.155 44.6307 92.975 44.6307 92.795C44.6307 92.48 44.4207 92.255 44.1657 92.255ZM41.1057 88.46C42.0207 88.46 42.2757 89.18 42.2757 89.885C42.2757 90.005 42.2607 90.155 42.2307 90.26H39.7857C39.8157 89.285 40.3107 88.46 41.1057 88.46ZM49.301 95H51.476C51.986 95 52.391 94.94 52.391 94.475C52.391 93.965 51.731 93.935 51.731 93.335V84.605C51.731 84.14 51.431 83.795 50.786 83.795C50.036 83.795 48.191 84.275 48.191 84.815C48.191 85.13 48.371 85.205 48.641 85.4C48.866 85.58 49.061 85.76 49.061 86.345V93.335C49.061 93.935 48.401 93.965 48.401 94.475C48.401 94.94 48.806 95 49.301 95ZM55.2932 95.21C56.6432 95.21 57.4232 94.7 57.9032 93.83H57.9782V93.965C57.9782 94.64 58.5632 95.225 59.6132 95.225C60.4982 95.225 61.0232 94.895 61.0232 94.49C61.0232 93.86 60.3632 94.19 60.3632 93.275V90.965C60.3182 88.61 59.3882 87.275 56.8532 87.275C54.4832 87.275 53.4332 88.37 53.4332 89.165C53.4332 89.87 53.9432 90.215 54.4832 90.215C55.0982 90.215 55.4882 89.885 55.7432 89.09C55.9382 88.61 56.2832 88.22 56.8082 88.22C57.3482 88.22 57.5882 88.595 57.5882 89.075C57.5882 89.615 57.3182 89.945 56.6282 90.29C55.2632 91.055 53.1182 91.445 53.1182 93.23C53.1182 94.19 53.8232 95.21 55.2932 95.21ZM56.5082 93.545C56.0432 93.545 55.6832 93.23 55.6832 92.69C55.6832 92.105 56.1932 91.7 57.0032 91.385L57.7382 91.1V92.015C57.7382 93.065 57.1532 93.545 56.5082 93.545ZM66.8789 95.21C68.9939 95.21 70.2689 93.485 70.2689 91.145C70.2689 88.625 68.7089 87.275 66.9989 87.275C66.2189 87.275 65.4989 87.545 64.9139 88.145V84.59C64.9139 84.125 64.6139 83.78 63.9689 83.78C63.1439 83.78 61.3739 84.275 61.3739 84.815C61.3739 85.115 61.5689 85.205 61.8239 85.385C62.0639 85.55 62.2589 85.79 62.2589 86.36L62.2739 93.29C62.2739 93.89 61.6139 93.905 61.6139 94.475C61.6139 94.97 62.0639 95 62.6039 95H63.8489C64.3439 95 64.5089 94.94 64.5089 94.445V94.295H64.5839C65.0789 94.82 65.7689 95.21 66.8789 95.21ZM66.5639 93.95C65.6789 93.95 64.9289 92.645 64.9289 90.995V90.38C64.9289 89.465 65.3189 88.85 65.9639 88.865C67.0289 88.865 67.6439 90.89 67.6289 92.315C67.6289 93.47 67.1789 93.95 66.5639 93.95Z" fill="black"/>
<g filter="url(#filter0_d_114_27)">
<rect x="10" width="70" height="70" rx="17" fill="url(#paint0_linear_114_27)"/>
</g>
<g filter="url(#filter1_diii_114_27)">
<path d="M62.7674 29.85C62.4257 29.1711 61.7423 28.75 61.0007 28.75H47.9503L52.1871 17.8273C52.4345 17.1936 52.3589 16.4713 51.9866 15.9041C51.6142 15.3369 50.9254 15 50.3337 15H35.6667C34.6641 15 33.8175 15.7654 33.685 16.7909L31.0182 37.4159C30.9797 37.7069 31.0024 38.003 31.0846 38.2841C31.1668 38.5652 31.3067 38.8248 31.4947 39.0453C31.6826 39.2664 31.9141 39.4436 32.1736 39.5651C32.4332 39.6866 32.7149 39.7496 32.9999 39.75H45.1919L41.7102 56.4305C41.5097 57.3947 41.9993 58.3692 42.8769 58.7585C43.1335 58.9484 43.4002 59 43.6669 59C44.3101 59 44.9352 58.6777 45.3178 58.1028L62.6515 31.9778C63.0674 31.3453 63.1174 30.5289 62.7674 29.85Z" fill="#FFC700"/>
<path d="M62.3207 30.0748L62.3207 30.0748L62.3229 30.0791C62.5889 30.5949 62.5519 31.2185 62.2343 31.7023C62.2341 31.7026 62.2339 31.7029 62.2337 31.7031L44.9015 57.8258C44.9015 57.8259 44.9014 57.8259 44.9014 57.8259C44.6116 58.2615 44.1428 58.5 43.6669 58.5C43.4712 58.5 43.3198 58.4642 43.1743 58.3566L43.13 58.3238L43.0796 58.3015C42.4245 58.0109 42.0455 57.2737 42.1997 56.5323L45.6814 39.8522L45.8071 39.25H45.1919H33.0006C32.789 39.2497 32.5794 39.203 32.3856 39.1122C32.1918 39.0215 32.0178 38.8886 31.8757 38.7215L31.8752 38.7209C31.7334 38.5546 31.6271 38.3579 31.5645 38.1437C31.5018 37.9295 31.4845 37.7036 31.5139 37.4815L31.5141 37.4801L34.1808 16.8551L34.1808 16.855C34.2827 16.0665 34.9276 15.5 35.6667 15.5H50.3337C50.7628 15.5 51.2919 15.7569 51.5686 16.1785C51.8519 16.61 51.91 17.1623 51.7213 17.6455L51.7209 17.6465L47.4842 28.5692L47.2201 29.25H47.9503H61.0007C61.5508 29.25 62.0628 29.5623 62.3207 30.0748Z" stroke="#C19A35"/>
</g>
</g>
<defs>
<filter id="filter0_d_114_27" x="0" y="-6" width="90" height="90" filterUnits="userSpaceOnUse" color-interpolation-filters="sRGB">
<feFlood flood-opacity="0" result="BackgroundImageFix"/>
<feColorMatrix in="SourceAlpha" type="matrix" values="0 0 0 0 0 0 0 0 0 0 0 0 0 0 0 0 0 0 127 0" result="hardAlpha"/>
<feMorphology radius="1" operator="dilate" in="SourceAlpha" result="effect1_dropShadow_114_27"/>
<feOffset dy="4"/>
<feGaussianBlur stdDeviation="4.5"/>
<feComposite in2="hardAlpha" operator="out"/>
<feColorMatrix type="matrix" values="0 0 0 0 0 0 0 0 0 0 0 0 0 0 0 0 0 0 0.25 0"/>
<feBlend mode="normal" in2="BackgroundImageFix" result="effect1_dropShadow_114_27"/>
<feBlend mode="normal" in="SourceGraphic" in2="effect1_dropShadow_114_27" result="shape"/>
</filter>
<filter id="filter1_diii_114_27" x="27" y="11" width="40" height="68" filterUnits="userSpaceOnUse" color-interpolation-filters="sRGB">
<feFlood flood-opacity="0" result="BackgroundImageFix"/>
<feColorMatrix in="SourceAlpha" type="matrix" values="0 0 0 0 0 0 0 0 0 0 0 0 0 0 0 0 0 0 127 0" result="hardAlpha"/>
<feOffset dy="4"/>
<feGaussianBlur stdDeviation="2"/>
<feComposite in2="hardAlpha" operator="out"/>
<feColorMatrix type="matrix" values="0 0 0 0 0 0 0 0 0 0 0 0 0 0 0 0 0 0 0.25 0"/>
<feBlend mode="normal" in2="BackgroundImageFix" result="effect1_dropShadow_114_27"/>
<feBlend mode="normal" in="SourceGraphic" in2="effect1_dropShadow_114_27" result="shape"/>
<feColorMatrix in="SourceAlpha" type="matrix" values="0 0 0 0 0 0 0 0 0 0 0 0 0 0 0 0 0 0 127 0" result="hardAlpha"/>
<feOffset dy="20"/>
<feComposite in2="hardAlpha" operator="arithmetic" k2="-1" k3="1"/>
<feColorMatrix type="matrix" values="0 0 0 0 1 0 0 0 0 1 0 0 0 0 1 0 0 0 0.5 0"/>
<feBlend mode="overlay" in2="shape" result="effect2_innerShadow_114_27"/>
<feColorMatrix in="SourceAlpha" type="matrix" values="0 0 0 0 0 0 0 0 0 0 0 0 0 0 0 0 0 0 127 0" result="hardAlpha"/>
<feOffset dy="-40"/>
<feGaussianBlur stdDeviation="2"/>
<feComposite in2="hardAlpha" operator="arithmetic" k2="-1" k3="1"/>
<feColorMatrix type="matrix" values="0 0 0 0 0 0 0 0 0 0 0 0 0 0 0 0 0 0 0.15 0"/>
<feBlend mode="overlay" in2="effect2_innerShadow_114_27" result="effect3_innerShadow_114_27"/>
<feColorMatrix in="SourceAlpha" type="matrix" values="0 0 0 0 0 0 0 0 0 0 0 0 0 0 0 0 0 0 127 0" result="hardAlpha"/>
<feOffset dy="20"/>
<feGaussianBlur stdDeviation="10"/>
<feComposite in2="hardAlpha" operator="arithmetic" k2="-1" k3="1"/>
<feColorMatrix type="matrix" values="0 0 0 0 1 0 0 0 0 1 0 0 0 0 1 0 0 0 0.25 0"/>
<feBlend mode="overlay" in2="effect3_innerShadow_114_27" result="effect4_innerShadow_114_27"/>
</filter>
<linearGradient id="paint0_linear_114_27" x1="53" y1="1.0352e-06" x2="48" y2="59" gradientUnits="userSpaceOnUse">
<stop stop-color="#FAEBB7"/>
<stop offset="1" stop-color="#FFC702"/>
</linearGradient>
<clipPath id="clip0_114_27">
<rect width="94" height="104" fill="white"/>
</clipPath>
</defs>
</svg>
